<svg xmlns="http://www.w3.org/2000/svg"
    width="32" height="32" viewBox="0 0 32 32"
    shape-rendering="crispEdges"
    role="img" aria-label="XCash Klassic">
  <g>
    <rect x="15" y="1" width="1" height="1" fill="#000000" fill-opacity="0.0039"/> <rect x="16" y="1" width="1" height="1" fill="#5555aa" fill-opacity="0.0118"/> <rect x="14" y="2" width="1" height="1" fill="#4c82b8" fill-opacity="0.1843"/> <rect x="15" y="2" width="1" height="1" fill="#4d81b6" fill-opacity="0.7294"/> <rect x="16" y="2" width="1" height="1" fill="#487eb4" fill-opacity="0.8314"/> <rect x="17" y="2" width="1" height="1" fill="#4179b4" fill-opacity="0.3059"/> <rect x="18" y="2" width="1" height="1" fill="#0000ff" fill-opacity="0.0039"/> <rect x="12" y="3" width="1" height="1" fill="#5884b9" fill-opacity="0.1137"/> <rect x="13" y="3" width="1" height="1" fill="#5684b8" fill-opacity="0.6157"/> <rect x="14" y="3" width="1" height="1" fill="#5282b6" fill-opacity="0.9882"/> <rect x="15" y="3" width="1" height="1" fill="#4c80b5"/> <rect x="16" y="3" width="1" height="1" fill="#487db4"/> <rect x="17" y="3" width="1" height="1" fill="#427bb2"/> <rect x="18" y="3" width="1" height="1" fill="#3b77b1" fill-opacity="0.7569"/> <rect x="19" y="3" width="1" height="1" fill="#3874b0" fill-opacity="0.2157"/> <rect x="10" y="4" width="1" height="1" fill="#5e86bc" fill-opacity="0.0745"/> <rect x="11" y="4" width="1" height="1" fill="#5785b8" fill-opacity="0.5490"/> <rect x="12" y="4" width="1" height="1" fill="#5c87b9" fill-opacity="0.9647"/> <rect x="13" y="4" width="1" height="1" fill="#5a85b8"/> <rect x="14" y="4" width="1" height="1" fill="#5382b6"/> <rect x="15" y="4" width="1" height="1" fill="#4b7fb5"/> <rect x="16" y="4" width="1" height="1" fill="#467db4"/> <rect x="17" y="4" width="1" height="1" fill="#427bb3"/> <rect x="18" y="4" width="1" height="1" fill="#3c78b1"/> <rect x="19" y="4" width="1" height="1" fill="#3c78b1" fill-opacity="0.9922"/> <rect x="20" y="4" width="1" height="1" fill="#437bb3" fill-opacity="0.6588"/> <rect x="21" y="4" width="1" height="1" fill="#4379ae" fill-opacity="0.1490"/> <rect x="8" y="5" width="1" height="1" fill="#6a95bf" fill-opacity="0.0471"/> <rect x="9" y="5" width="1" height="1" fill="#688bbb" fill-opacity="0.4824"/> <rect x="10" y="5" width="1" height="1" fill="#6b8dbc" fill-opacity="0.9373"/> <rect x="11" y="5" width="1" height="1" fill="#6f8fbd"/> <rect x="12" y="5" width="1" height="1" fill="#678bbb"/> <rect x="13" y="5" width="1" height="1" fill="#5b86b8"/> <rect x="14" y="5" width="1" height="1" fill="#4d80b5" fill-opacity="0.9843"/> <rect x="15" y="5" width="1" height="1" fill="#477db3" fill-opacity="0.6078"/> <rect x="16" y="5" width="1" height="1" fill="#417bb3" fill-opacity="0.5686"/> <rect x="17" y="5" width="1" height="1" fill="#427ab3" fill-opacity="0.9725"/> <rect x="18" y="5" width="1" height="1" fill="#3d79b2"/> <rect x="19" y="5" width="1" height="1" fill="#3e79b2"/> <rect x="20" y="5" width="1" height="1" fill="#457cb3"/> <rect x="21" y="5" width="1" height="1" fill="#4e80b5" fill-opacity="0.9765"/> <rect x="22" y="5" width="1" height="1" fill="#5482b5" fill-opacity="0.5843"/> <rect x="23" y="5" width="1" height="1" fill="#557fb5" fill-opacity="0.0941"/> <rect x="6" y="6" width="1" height="1" fill="#9999cc" fill-opacity="0.0196"/> <rect x="7" y="6" width="1" height="1" fill="#8e9bc3" fill-opacity="0.4510"/> <rect x="8" y="6" width="1" height="1" fill="#7691bf" fill-opacity="0.9020"/> <rect x="9" y="6" width="1" height="1" fill="#8096c0"/> <rect x="10" y="6" width="1" height="1" fill="#8397c1"/> <rect x="11" y="6" width="1" height="1" fill="#7692be"/> <rect x="12" y="6" width="1" height="1" fill="#6189ba" fill-opacity="0.9961"/> <rect x="13" y="6" width="1" height="1" fill="#5382b7" fill-opacity="0.6980"/> <rect x="14" y="6" width="1" height="1" fill="#447db0" fill-opacity="0.1765"/> <rect x="17" y="6" width="1" height="1" fill="#3978b1" fill-opacity="0.1412"/> <rect x="18" y="6" width="1" height="1" fill="#3b77b1" fill-opacity="0.6627"/> <rect x="19" y="6" width="1" height="1" fill="#3f79b2" fill-opacity="0.9922"/> <rect x="20" y="6" width="1" height="1" fill="#497eb4"/> <rect x="21" y="6" width="1" height="1" fill="#5283b7" fill-opacity="0.9961"/> <rect x="22" y="6" width="1" height="1" fill="#5582b6" fill-opacity="0.6863"/> <rect x="23" y="6" width="1" height="1" fill="#4f84b9" fill-opacity="0.1137"/> <rect x="24" y="6" width="1" height="1" fill="#8080ff" fill-opacity="0.0078"/> <rect x="25" y="6" width="1" height="1" fill="#6d92c8" fill-opacity="0.0549"/> <rect x="4" y="7" width="1" height="1" fill="#5555aa" fill-opacity="0.0118"/> <rect x="5" y="7" width="1" height="1" fill="#8a9bc4" fill-opacity="0.3412"/> <rect x="6" y="7" width="1" height="1" fill="#929ec5" fill-opacity="0.8588"/> <rect x="7" y="7" width="1" height="1" fill="#8d9cc4" fill-opacity="0.9922"/> <rect x="8" y="7" width="1" height="1" fill="#7391be"/> <rect x="9" y="7" width="1" height="1" fill="#8d9cc4"/> <rect x="10" y="7" width="1" height="1" fill="#7d95c0"/> <rect x="11" y="7" width="1" height="1" fill="#688cbc" fill-opacity="0.7882"/> <rect x="12" y="7" width="1" height="1" fill="#5a85b8" fill-opacity="0.2549"/> <rect x="19" y="7" width="1" height="1" fill="#3c79b0" fill-opacity="0.2157"/> <rect x="20" y="7" width="1" height="1" fill="#4b80b5" fill-opacity="0.6902"/> <rect x="21" y="7" width="1" height="1" fill="#5584b9" fill-opacity="0.3412"/> <rect x="23" y="7" width="1" height="1" fill="#8698c0" fill-opacity="0.2235"/> <rect x="24" y="7" width="1" height="1" fill="#7391bd" fill-opacity="0.7725"/> <rect x="25" y="7" width="1" height="1" fill="#668abb" fill-opacity="0.9255"/> <rect x="26" y="7" width="1" height="1" fill="#5383b7" fill-opacity="0.4588"/> <rect x="27" y="7" width="1" height="1" fill="#4d80b3" fill-opacity="0.0392"/> <rect x="3" y="8" width="1" height="1" fill="#8395c1" fill-opacity="0.1608"/> <rect x="4" y="8" width="1" height="1" fill="#8899c2" fill-opacity="0.8039"/> <rect x="5" y="8" width="1" height="1" fill="#8a9bc3"/> <rect x="6" y="8" width="1" height="1" fill="#899ac3"/> <rect x="7" y="8" width="1" height="1" fill="#7d95c0"/> <rect x="8" y="8" width="1" height="1" fill="#6c8ebd"/> <rect x="9" y="8" width="1" height="1" fill="#7491be"/> <rect x="10" y="8" width="1" height="1" fill="#6a8dbc" fill-opacity="0.5098"/> <rect x="11" y="8" width="1" height="1" fill="#5555aa" fill-opacity="0.0118"/> <rect x="21" y="8" width="1" height="1" fill="#4d80b3" fill-opacity="0.0784"/> <rect x="22" y="8" width="1" height="1" fill="#8397c1" fill-opacity="0.6431"/> <rect x="23" y="8" width="1" height="1" fill="#6e8fbc" fill-opacity="0.9922"/> <rect x="24" y="8" width="1" height="1" fill="#6088ba"/> <rect x="25" y="8" width="1" height="1" fill="#5382b7"/> <rect x="26" y="8" width="1" height="1" fill="#4d80b6"/> <rect x="27" y="8" width="1" height="1" fill="#4a7fb5" fill-opacity="0.8745"/> <rect x="28" y="8" width="1" height="1" fill="#3e7bb1" fill-opacity="0.2431"/> <rect x="3" y="9" width="1" height="1" fill="#879ac2" fill-opacity="0.3765"/> <rect x="4" y="9" width="1" height="1" fill="#8699c2"/> <rect x="5" y="9" width="1" height="1" fill="#8197c1"/> <rect x="6" y="9" width="1" height="1" fill="#7591bf" fill-opacity="0.9490"/> <rect x="7" y="9" width="1" height="1" fill="#648abb"/> <rect x="8" y="9" width="1" height="1" fill="#6289ba"/> <rect x="9" y="9" width="1" height="1" fill="#6b8dbc"/> <rect x="10" y="9" width="1" height="1" fill="#6d8ebd" fill-opacity="0.9176"/> <rect x="11" y="9" width="1" height="1" fill="#688bbb" fill-opacity="0.2510"/> <rect x="20" y="9" width="1" height="1" fill="#507cb6" fill-opacity="0.1373"/> <rect x="21" y="9" width="1" height="1" fill="#5080b6" fill-opacity="0.8275"/> <rect x="22" y="9" width="1" height="1" fill="#457cb3"/> <rect x="23" y="9" width="1" height="1" fill="#3f79b2"/> <rect x="24" y="9" width="1" height="1" fill="#467cb4"/> <rect x="25" y="9" width="1" height="1" fill="#4a7fb5" fill-opacity="0.9843"/> <rect x="26" y="9" width="1" height="1" fill="#447cb3"/> <rect x="27" y="9" width="1" height="1" fill="#3a77b1"/> <rect x="28" y="9" width="1" height="1" fill="#3975b0" fill-opacity="0.4941"/> <rect x="3" y="10" width="1" height="1" fill="#8499c1" fill-opacity="0.3725"/> <rect x="4" y="10" width="1" height="1" fill="#7d95c0"/> <rect x="5" y="10" width="1" height="1" fill="#8096c1"/> <rect x="6" y="10" width="1" height="1" fill="#7f96bf" fill-opacity="0.4078"/> <rect x="7" y="10" width="1" height="1" fill="#5d87b9" fill-opacity="0.6000"/> <rect x="8" y="10" width="1" height="1" fill="#6089ba" fill-opacity="0.9961"/> <rect x="9" y="10" width="1" height="1" fill="#6289ba"/> <rect x="10" y="10" width="1" height="1" fill="#668bbb"/> <rect x="11" y="10" width="1" height="1" fill="#6e8ebd" fill-opacity="0.9804"/> <rect x="12" y="10" width="1" height="1" fill="#6089b8" fill-opacity="0.4392"/> <rect x="13" y="10" width="1" height="1" fill="#000000" fill-opacity="0.0039"/> <rect x="19" y="10" width="1" height="1" fill="#407cb4" fill-opacity="0.2667"/> <rect x="20" y="10" width="1" height="1" fill="#477db4" fill-opacity="0.9294"/> <rect x="21" y="10" width="1" height="1" fill="#407ab2"/> <rect x="22" y="10" width="1" height="1" fill="#3d79b2"/> <rect x="23" y="10" width="1" height="1" fill="#3977b1"/> <rect x="24" y="10" width="1" height="1" fill="#3776b1" fill-opacity="0.6549"/> <rect x="25" y="10" width="1" height="1" fill="#3675b1" fill-opacity="0.3333"/> <rect x="26" y="10" width="1" height="1" fill="#3c78b2"/> <rect x="27" y="10" width="1" height="1" fill="#3a77b1"/> <rect x="28" y="10" width="1" height="1" fill="#3976b1" fill-opacity="0.4902"/> <rect x="3" y="11" width="1" height="1" fill="#7994bf" fill-opacity="0.3725"/> <rect x="4" y="11" width="1" height="1" fill="#7d95c0"/> <rect x="5" y="11" width="1" height="1" fill="#8397c1"/> <rect x="6" y="11" width="1" height="1" fill="#8698c1" fill-opacity="0.3882"/> <rect x="8" y="11" width="1" height="1" fill="#6087b9" fill-opacity="0.4157"/> <rect x="9" y="11" width="1" height="1" fill="#658bbb" fill-opacity="0.9725"/> <rect x="10" y="11" width="1" height="1" fill="#648abb"/> <rect x="11" y="11" width="1" height="1" fill="#668bbb"/> <rect x="12" y="11" width="1" height="1" fill="#6189ba"/> <rect x="13" y="11" width="1" height="1" fill="#5a87b8" fill-opacity="0.6235"/> <rect x="14" y="11" width="1" height="1" fill="#5571aa" fill-opacity="0.0353"/> <rect x="17" y="11" width="1" height="1" fill="#0000ff" fill-opacity="0.0039"/> <rect x="18" y="11" width="1" height="1" fill="#3f7bb3" fill-opacity="0.4471"/> <rect x="19" y="11" width="1" height="1" fill="#3f7ab3" fill-opacity="0.9843"/> <rect x="20" y="11" width="1" height="1" fill="#417ab2"/> <rect x="21" y="11" width="1" height="1" fill="#3e79b2"/> <rect x="22" y="11" width="1" height="1" fill="#3a77b2" fill-opacity="0.9843"/> <rect x="23" y="11" width="1" height="1" fill="#3575b0" fill-opacity="0.4706"/> <rect x="24" y="11" width="1" height="1" fill="#00ffff" fill-opacity="0.0039"/> <rect x="25" y="11" width="1" height="1" fill="#3977b0" fill-opacity="0.2784"/> <rect x="26" y="11" width="1" height="1" fill="#3f7ab2"/> <rect x="27" y="11" width="1" height="1" fill="#3d79b2"/> <rect x="28" y="11" width="1" height="1" fill="#3d78b1" fill-opacity="0.4902"/> <rect x="3" y="12" width="1" height="1" fill="#7994bf" fill-opacity="0.3725"/> <rect x="4" y="12" width="1" height="1" fill="#7d95c0"/> <rect x="5" y="12" width="1" height="1" fill="#8397c1"/> <rect x="6" y="12" width="1" height="1" fill="#879ac3" fill-opacity="0.3843"/> <rect x="9" y="12" width="1" height="1" fill="#608ab8" fill-opacity="0.2392"/> <rect x="10" y="12" width="1" height="1" fill="#6389bb" fill-opacity="0.9020"/> <rect x="11" y="12" width="1" height="1" fill="#648abb"/> <rect x="12" y="12" width="1" height="1" fill="#6188ba"/> <rect x="13" y="12" width="1" height="1" fill="#5c86b9"/> <rect x="14" y="12" width="1" height="1" fill="#5583b7" fill-opacity="0.7882"/> <rect x="15" y="12" width="1" height="1" fill="#497fb6" fill-opacity="0.1098"/> <rect x="17" y="12" width="1" height="1" fill="#417ab4" fill-opacity="0.3843"/> <rect x="18" y="12" width="1" height="1" fill="#447cb3"/> <rect x="19" y="12" width="1" height="1" fill="#447bb3"/> <rect x="20" y="12" width="1" height="1" fill="#3e79b2"/> <rect x="21" y="12" width="1" height="1" fill="#3976b1" fill-opacity="0.9333"/> <rect x="22" y="12" width="1" height="1" fill="#3477af" fill-opacity="0.2863"/> <rect x="25" y="12" width="1" height="1" fill="#3c78b1" fill-opacity="0.2824"/> <rect x="26" y="12" width="1" height="1" fill="#437bb3"/> <rect x="27" y="12" width="1" height="1" fill="#417ab3"/> <rect x="28" y="12" width="1" height="1" fill="#3f79b2" fill-opacity="0.4941"/> <rect x="3" y="13" width="1" height="1" fill="#7994bf" fill-opacity="0.3725"/> <rect x="4" y="13" width="1" height="1" fill="#7d95c0"/> <rect x="5" y="13" width="1" height="1" fill="#8498c2"/> <rect x="6" y="13" width="1" height="1" fill="#899bc3" fill-opacity="0.3804"/> <rect x="10" y="13" width="1" height="1" fill="#5b89bf" fill-opacity="0.1098"/> <rect x="11" y="13" width="1" height="1" fill="#5e86b9" fill-opacity="0.7882"/> <rect x="12" y="13" width="1" height="1" fill="#5e87b9"/> <rect x="13" y="13" width="1" height="1" fill="#5c86b9"/> <rect x="14" y="13" width="1" height="1" fill="#5483b7"/> <rect x="15" y="13" width="1" height="1" fill="#4c7fb6" fill-opacity="0.9020"/> <rect x="16" y="13" width="1" height="1" fill="#4179b3" fill-opacity="0.2902"/> <rect x="17" y="13" width="1" height="1" fill="#0080ff" fill-opacity="0.0078"/> <rect x="18" y="13" width="1" height="1" fill="#467eb4" fill-opacity="0.5176"/> <rect x="19" y="13" width="1" height="1" fill="#427ab3" fill-opacity="0.9961"/> <rect x="20" y="13" width="1" height="1" fill="#3977b1" fill-opacity="0.8314"/> <rect x="21" y="13" width="1" height="1" fill="#3775b3" fill-opacity="0.1451"/> <rect x="25" y="13" width="1" height="1" fill="#4078b1" fill-opacity="0.2824"/> <rect x="26" y="13" width="1" height="1" fill="#457cb4"/> <rect x="27" y="13" width="1" height="1" fill="#437bb3"/> <rect x="28" y="13" width="1" height="1" fill="#417ab4" fill-opacity="0.4902"/> <rect x="3" y="14" width="1" height="1" fill="#7994bf" fill-opacity="0.3725"/> <rect x="4" y="14" width="1" height="1" fill="#7e95c0"/> <rect x="5" y="14" width="1" height="1" fill="#8598c2"/> <rect x="6" y="14" width="1" height="1" fill="#8a9ac3" fill-opacity="0.3843"/> <rect x="11" y="14" width="1" height="1" fill="#558eaa" fill-opacity="0.0353"/> <rect x="12" y="14" width="1" height="1" fill="#5984b9" fill-opacity="0.6275"/> <rect x="13" y="14" width="1" height="1" fill="#5a86b9"/> <rect x="14" y="14" width="1" height="1" fill="#5483b7"/> <rect x="15" y="14" width="1" height="1" fill="#4a7fb4"/> <rect x="16" y="14" width="1" height="1" fill="#427bb3" fill-opacity="0.9843"/> <rect x="17" y="14" width="1" height="1" fill="#497db4" fill-opacity="0.4784"/> <rect x="18" y="14" width="1" height="1" fill="#55aaaa" fill-opacity="0.0118"/> <rect x="19" y="14" width="1" height="1" fill="#3975b1" fill-opacity="0.2824"/> <rect x="20" y="14" width="1" height="1" fill="#3b76b1" fill-opacity="0.0510"/> <rect x="25" y="14" width="1" height="1" fill="#4278b3" fill-opacity="0.2745"/> <rect x="26" y="14" width="1" height="1" fill="#467db4"/> <rect x="27" y="14" width="1" height="1" fill="#447cb3"/> <rect x="28" y="14" width="1" height="1" fill="#437ab4" fill-opacity="0.4902"/> <rect x="3" y="15" width="1" height="1" fill="#7994bf" fill-opacity="0.3725"/> <rect x="4" y="15" width="1" height="1" fill="#7e95c0"/> <rect x="5" y="15" width="1" height="1" fill="#8598c2"/> <rect x="6" y="15" width="1" height="1" fill="#8b9bc3" fill-opacity="0.3804"/> <rect x="12" y="15" width="1" height="1" fill="#000000" fill-opacity="0.0039"/> <rect x="13" y="15" width="1" height="1" fill="#5985b8" fill-opacity="0.6863"/> <rect x="14" y="15" width="1" height="1" fill="#5482b6"/> <rect x="15" y="15" width="1" height="1" fill="#497eb4"/> <rect x="16" y="15" width="1" height="1" fill="#4e80b6"/> <rect x="17" y="15" width="1" height="1" fill="#7993bf"/> <rect x="18" y="15" width="1" height="1" fill="#6e8ebd" fill-opacity="0.6706"/> <rect x="19" y="15" width="1" height="1" fill="#5555aa" fill-opacity="0.0118"/> <rect x="25" y="15" width="1" height="1" fill="#427cb3" fill-opacity="0.2745"/> <rect x="26" y="15" width="1" height="1" fill="#497eb5"/> <rect x="27" y="15" width="1" height="1" fill="#477db4"/> <rect x="28" y="15" width="1" height="1" fill="#457cb4" fill-opacity="0.4902"/> <rect x="3" y="16" width="1" height="1" fill="#7994bf" fill-opacity="0.3725"/> <rect x="4" y="16" width="1" height="1" fill="#7e95c0"/> <rect x="5" y="16" width="1" height="1" fill="#8699c2"/> <rect x="6" y="16" width="1" height="1" fill="#8d9dc5" fill-opacity="0.3765"/> <rect x="11" y="16" width="1" height="1" fill="#4080bf" fill-opacity="0.0157"/> <rect x="12" y="16" width="1" height="1" fill="#628abc" fill-opacity="0.5490"/> <rect x="13" y="16" width="1" height="1" fill="#5b87b9" fill-opacity="0.9961"/> <rect x="14" y="16" width="1" height="1" fill="#5382b6"/> <rect x="15" y="16" width="1" height="1" fill="#5f88b9"/> <rect x="16" y="16" width="1" height="1" fill="#7993bf"/> <rect x="17" y="16" width="1" height="1" fill="#668abb"/> <rect x="18" y="16" width="1" height="1" fill="#487db4"/> <rect x="19" y="16" width="1" height="1" fill="#3f79b2" fill-opacity="0.7176"/> <rect x="20" y="16" width="1" height="1" fill="#3080af" fill-opacity="0.0627"/> <rect x="25" y="16" width="1" height="1" fill="#457cb3" fill-opacity="0.2745"/> <rect x="26" y="16" width="1" height="1" fill="#4a7fb5"/> <rect x="27" y="16" width="1" height="1" fill="#497eb5"/> <rect x="28" y="16" width="1" height="1" fill="#497db4" fill-opacity="0.4941"/> <rect x="3" y="17" width="1" height="1" fill="#7994bf" fill-opacity="0.3725"/> <rect x="4" y="17" width="1" height="1" fill="#7e95c0"/> <rect x="5" y="17" width="1" height="1" fill="#8498c1"/> <rect x="6" y="17" width="1" height="1" fill="#8b9bc3" fill-opacity="0.3804"/> <rect x="10" y="17" width="1" height="1" fill="#638eb8" fill-opacity="0.0706"/> <rect x="11" y="17" width="1" height="1" fill="#658bbb" fill-opacity="0.7098"/> <rect x="12" y="17" width="1" height="1" fill="#6289ba"/> <rect x="13" y="17" width="1" height="1" fill="#5d87b9"/> <rect x="14" y="17" width="1" height="1" fill="#6f8fbd"/> <rect x="15" y="17" width="1" height="1" fill="#7490bd" fill-opacity="0.9765"/> <rect x="16" y="17" width="1" height="1" fill="#5985b9" fill-opacity="0.9373"/> <rect x="17" y="17" width="1" height="1" fill="#4c80b5"/> <rect x="18" y="17" width="1" height="1" fill="#467cb3"/> <rect x="19" y="17" width="1" height="1" fill="#407ab3"/> <rect x="20" y="17" width="1" height="1" fill="#3d78b2" fill-opacity="0.8392"/> <rect x="21" y="17" width="1" height="1" fill="#3876ae" fill-opacity="0.1608"/> <rect x="25" y="17" width="1" height="1" fill="#497cb3" fill-opacity="0.2745"/> <rect x="26" y="17" width="1" height="1" fill="#4e80b6"/> <rect x="27" y="17" width="1" height="1" fill="#4d80b5"/> <rect x="28" y="17" width="1" height="1" fill="#4e81b6" fill-opacity="0.4902"/> <rect x="3" y="18" width="1" height="1" fill="#7994bf" fill-opacity="0.3725"/> <rect x="4" y="18" width="1" height="1" fill="#7e95c0"/> <rect x="5" y="18" width="1" height="1" fill="#8498c1"/> <rect x="6" y="18" width="1" height="1" fill="#899bc3" fill-opacity="0.3804"/> <rect x="9" y="18" width="1" height="1" fill="#708fc1" fill-opacity="0.1608"/> <rect x="10" y="18" width="1" height="1" fill="#6e8fbd" fill-opacity="0.8471"/> <rect x="11" y="18" width="1" height="1" fill="#668bbb"/> <rect x="12" y="18" width="1" height="1" fill="#648abb"/> <rect x="13" y="18" width="1" height="1" fill="#7b94c0"/> <rect x="14" y="18" width="1" height="1" fill="#6d8fbd" fill-opacity="0.8980"/> <rect x="15" y="18" width="1" height="1" fill="#5984b7" fill-opacity="0.2353"/> <rect x="16" y="18" width="1" height="1" fill="#4778b1" fill-opacity="0.1412"/> <rect x="17" y="18" width="1" height="1" fill="#477cb4" fill-opacity="0.8275"/> <rect x="18" y="18" width="1" height="1" fill="#457cb4"/> <rect x="19" y="18" width="1" height="1" fill="#417ab3"/> <rect x="20" y="18" width="1" height="1" fill="#3d78b2"/> <rect x="21" y="18" width="1" height="1" fill="#3976b1" fill-opacity="0.9373"/> <rect x="22" y="18" width="1" height="1" fill="#3275ae" fill-opacity="0.2980"/> <rect x="25" y="18" width="1" height="1" fill="#4d80b3" fill-opacity="0.2745"/> <rect x="26" y="18" width="1" height="1" fill="#5382b7"/> <rect x="27" y="18" width="1" height="1" fill="#5282b7"/> <rect x="28" y="18" width="1" height="1" fill="#5284b7" fill-opacity="0.4863"/> <rect x="3" y="19" width="1" height="1" fill="#7994c1" fill-opacity="0.3725"/> <rect x="4" y="19" width="1" height="1" fill="#7e95c0"/> <rect x="5" y="19" width="1" height="1" fill="#8398c1"/> <rect x="6" y="19" width="1" height="1" fill="#8998c3" fill-opacity="0.3804"/> <rect x="8" y="19" width="1" height="1" fill="#7690be" fill-opacity="0.3059"/> <rect x="9" y="19" width="1" height="1" fill="#7290be" fill-opacity="0.9373"/> <rect x="10" y="19" width="1" height="1" fill="#6e8ebc"/> <rect x="11" y="19" width="1" height="1" fill="#6d8ebc"/> <rect x="12" y="19" width="1" height="1" fill="#8197c1"/> <rect x="13" y="19" width="1" height="1" fill="#698cbc" fill-opacity="0.7725"/> <rect x="14" y="19" width="1" height="1" fill="#5584b3" fill-opacity="0.1059"/> <rect x="17" y="19" width="1" height="1" fill="#377fb6" fill-opacity="0.0549"/> <rect x="18" y="19" width="1" height="1" fill="#3e7ab2" fill-opacity="0.6902"/> <rect x="19" y="19" width="1" height="1" fill="#497eb4"/> <rect x="20" y="19" width="1" height="1" fill="#3f79b2"/> <rect x="21" y="19" width="1" height="1" fill="#3876b1"/> <rect x="22" y="19" width="1" height="1" fill="#3776b1" fill-opacity="0.9843"/> <rect x="23" y="19" width="1" height="1" fill="#3574b1" fill-opacity="0.4745"/> <rect x="24" y="19" width="1" height="1" fill="#00ffff" fill-opacity="0.0039"/> <rect x="25" y="19" width="1" height="1" fill="#5483b6" fill-opacity="0.2745"/> <rect x="26" y="19" width="1" height="1" fill="#5985b8"/> <rect x="27" y="19" width="1" height="1" fill="#5784b8"/> <rect x="28" y="19" width="1" height="1" fill="#5784b6" fill-opacity="0.4941"/> <rect x="3" y="20" width="1" height="1" fill="#7994c1" fill-opacity="0.3725"/> <rect x="4" y="20" width="1" height="1" fill="#7e95c0"/> <rect x="5" y="20" width="1" height="1" fill="#8598c2"/> <rect x="6" y="20" width="1" height="1" fill="#8a9cc4" fill-opacity="0.3922"/> <rect x="7" y="20" width="1" height="1" fill="#7e95c1" fill-opacity="0.4980"/> <rect x="8" y="20" width="1" height="1" fill="#7894bf" fill-opacity="0.9882"/> <rect x="9" y="20" width="1" height="1" fill="#7692bf"/> <rect x="10" y="20" width="1" height="1" fill="#7a94c0"/> <rect x="11" y="20" width="1" height="1" fill="#8599c2" fill-opacity="0.9961"/> <rect x="12" y="20" width="1" height="1" fill="#6d8dbd" fill-opacity="0.6235"/> <rect x="13" y="20" width="1" height="1" fill="#6080bf" fill-opacity="0.0314"/> <rect x="18" y="20" width="1" height="1" fill="#0055aa" fill-opacity="0.0118"/> <rect x="19" y="20" width="1" height="1" fill="#3b78b1" fill-opacity="0.5255"/> <rect x="20" y="20" width="1" height="1" fill="#4a7eb4" fill-opacity="0.9922"/> <rect x="21" y="20" width="1" height="1" fill="#3f79b2"/> <rect x="22" y="20" width="1" height="1" fill="#3877b1"/> <rect x="23" y="20" width="1" height="1" fill="#3675b0"/> <rect x="24" y="20" width="1" height="1" fill="#3475b0" fill-opacity="0.6588"/> <rect x="25" y="20" width="1" height="1" fill="#5281b7" fill-opacity="0.3176"/> <rect x="26" y="20" width="1" height="1" fill="#5d87b9"/> <rect x="27" y="20" width="1" height="1" fill="#5b86b9"/> <rect x="28" y="20" width="1" height="1" fill="#5c89ba" fill-opacity="0.4902"/> <rect x="3" y="21" width="1" height="1" fill="#7b94c1" fill-opacity="0.3725"/> <rect x="4" y="21" width="1" height="1" fill="#7f95c0"/> <rect x="5" y="21" width="1" height="1" fill="#8599c2"/> <rect x="6" y="21" width="1" height="1" fill="#8899c2" fill-opacity="0.9255"/> <rect x="7" y="21" width="1" height="1" fill="#8197c1"/> <rect x="8" y="21" width="1" height="1" fill="#7993bf"/> <rect x="9" y="21" width="1" height="1" fill="#8297c1"/> <rect x="10" y="21" width="1" height="1" fill="#889ac3" fill-opacity="0.9843"/> <rect x="11" y="21" width="1" height="1" fill="#7390bf" fill-opacity="0.4510"/> <rect x="12" y="21" width="1" height="1" fill="#000000" fill-opacity="0.0039"/> <rect x="20" y="21" width="1" height="1" fill="#3c78b2" fill-opacity="0.3490"/> <rect x="21" y="21" width="1" height="1" fill="#4f81b6" fill-opacity="0.9569"/> <rect x="22" y="21" width="1" height="1" fill="#4e80b5"/> <rect x="23" y="21" width="1" height="1" fill="#3775b0"/> <rect x="24" y="21" width="1" height="1" fill="#3575b0"/> <rect x="25" y="21" width="1" height="1" fill="#3c79b2" fill-opacity="0.9373"/> <rect x="26" y="21" width="1" height="1" fill="#5081b6"/> <rect x="27" y="21" width="1" height="1" fill="#5e88b9"/> <rect x="28" y="21" width="1" height="1" fill="#6089b9" fill-opacity="0.4980"/> <rect x="3" y="22" width="1" height="1" fill="#7c94bf" fill-opacity="0.2980"/> <rect x="4" y="22" width="1" height="1" fill="#7b94c0" fill-opacity="0.9843"/> <rect x="5" y="22" width="1" height="1" fill="#7e95c0"/> <rect x="6" y="22" width="1" height="1" fill="#8297c1"/> <rect x="7" y="22" width="1" height="1" fill="#8598c2"/> <rect x="8" y="22" width="1" height="1" fill="#8a9bc3"/> <rect x="9" y="22" width="1" height="1" fill="#8b9cc3" fill-opacity="0.9059"/> <rect x="10" y="22" width="1" height="1" fill="#7e96c2" fill-opacity="0.2941"/> <rect x="21" y="22" width="1" height="1" fill="#3878b3" fill-opacity="0.2510"/> <rect x="22" y="22" width="1" height="1" fill="#6f8fbc" fill-opacity="0.9922"/> <rect x="23" y="22" width="1" height="1" fill="#6289ba"/> <rect x="24" y="22" width="1" height="1" fill="#3d79b2"/> <rect x="25" y="22" width="1" height="1" fill="#3a77b1"/> <rect x="26" y="22" width="1" height="1" fill="#3877b1"/> <rect x="27" y="22" width="1" height="1" fill="#3d79b1" fill-opacity="0.9922"/> <rect x="28" y="22" width="1" height="1" fill="#5383b6" fill-opacity="0.3961"/> <rect x="4" y="23" width="1" height="1" fill="#7a96c2" fill-opacity="0.1804"/> <rect x="5" y="23" width="1" height="1" fill="#7d95c0" fill-opacity="0.7294"/> <rect x="6" y="23" width="1" height="1" fill="#8197c1" fill-opacity="0.9961"/> <rect x="7" y="23" width="1" height="1" fill="#8b9bc3" fill-opacity="0.9843"/> <rect x="8" y="23" width="1" height="1" fill="#909dc4" fill-opacity="0.5922"/> <rect x="9" y="23" width="1" height="1" fill="#8e9cc6" fill-opacity="0.0706"/> <rect x="10" y="23" width="1" height="1" fill="#6184b9" fill-opacity="0.1137"/> <rect x="11" y="23" width="1" height="1" fill="#5c86ba" fill-opacity="0.4039"/> <rect x="12" y="23" width="1" height="1" fill="#558ec6" fill-opacity="0.0353"/> <rect x="19" y="23" width="1" height="1" fill="#5555aa" fill-opacity="0.0118"/> <rect x="20" y="23" width="1" height="1" fill="#3e78b3" fill-opacity="0.3569"/> <rect x="21" y="23" width="1" height="1" fill="#5282b7" fill-opacity="0.8863"/> <rect x="22" y="23" width="1" height="1" fill="#8297c1"/> <rect x="23" y="23" width="1" height="1" fill="#929ec5"/> <rect x="24" y="23" width="1" height="1" fill="#668bbb"/> <rect x="25" y="23" width="1" height="1" fill="#3977b1" fill-opacity="0.9961"/> <rect x="26" y="23" width="1" height="1" fill="#3675b1" fill-opacity="0.7412"/> <rect x="27" y="23" width="1" height="1" fill="#3176b1" fill-opacity="0.2039"/> <rect x="5" y="24" width="1" height="1" fill="#000000" fill-opacity="0.0039"/> <rect x="6" y="24" width="1" height="1" fill="#859ac0" fill-opacity="0.2863"/> <rect x="7" y="24" width="1" height="1" fill="#939dc4" fill-opacity="0.2039"/> <rect x="8" y="24" width="1" height="1" fill="#008080" fill-opacity="0.0078"/> <rect x="9" y="24" width="1" height="1" fill="#6b8dbe" fill-opacity="0.3843"/> <rect x="10" y="24" width="1" height="1" fill="#638abb" fill-opacity="0.9373"/> <rect x="11" y="24" width="1" height="1" fill="#5d87b9"/> <rect x="12" y="24" width="1" height="1" fill="#5483b7" fill-opacity="0.8784"/> <rect x="13" y="24" width="1" height="1" fill="#497db3" fill-opacity="0.3686"/> <rect x="14" y="24" width="1" height="1" fill="#5555aa" fill-opacity="0.0118"/> <rect x="18" y="24" width="1" height="1" fill="#3d7ab3" fill-opacity="0.2627"/> <rect x="19" y="24" width="1" height="1" fill="#467cb3" fill-opacity="0.8039"/> <rect x="20" y="24" width="1" height="1" fill="#5d86b9"/> <rect x="21" y="24" width="1" height="1" fill="#718fbd"/> <rect x="22" y="24" width="1" height="1" fill="#8096c0"/> <rect x="23" y="24" width="1" height="1" fill="#718fbd"/> <rect x="24" y="24" width="1" height="1" fill="#4e80b6" fill-opacity="0.8196"/> <rect x="25" y="24" width="1" height="1" fill="#417cb3" fill-opacity="0.2902"/> <rect x="26" y="24" width="1" height="1" fill="#000000" fill-opacity="0.0039"/> <rect x="8" y="25" width="1" height="1" fill="#6a8fbb" fill-opacity="0.1608"/> <rect x="9" y="25" width="1" height="1" fill="#688cbb" fill-opacity="0.8275"/> <rect x="10" y="25" width="1" height="1" fill="#648aba"/> <rect x="11" y="25" width="1" height="1" fill="#5d87b9"/> <rect x="12" y="25" width="1" height="1" fill="#5683b7"/> <rect x="13" y="25" width="1" height="1" fill="#4f81b6"/> <rect x="14" y="25" width="1" height="1" fill="#487eb4" fill-opacity="0.8039"/> <rect x="15" y="25" width="1" height="1" fill="#427cb3" fill-opacity="0.2745"/> <rect x="16" y="25" width="1" height="1" fill="#447db5" fill-opacity="0.1765"/> <rect x="17" y="25" width="1" height="1" fill="#447cb3" fill-opacity="0.7020"/> <rect x="18" y="25" width="1" height="1" fill="#4d81b6" fill-opacity="0.9961"/> <rect x="19" y="25" width="1" height="1" fill="#5d87b8"/> <rect x="20" y="25" width="1" height="1" fill="#668abb"/> <rect x="21" y="25" width="1" height="1" fill="#5f88b9"/> <rect x="22" y="25" width="1" height="1" fill="#497db5" fill-opacity="0.8784"/> <rect x="23" y="25" width="1" height="1" fill="#3b76b1" fill-opacity="0.3725"/> <rect x="24" y="25" width="1" height="1" fill="#55aaaa" fill-opacity="0.0118"/> <rect x="9" y="26" width="1" height="1" fill="#8080bf" fill-opacity="0.0157"/> <rect x="10" y="26" width="1" height="1" fill="#6289b9" fill-opacity="0.3882"/> <rect x="11" y="26" width="1" height="1" fill="#5d86b9" fill-opacity="0.8863"/> <rect x="12" y="26" width="1" height="1" fill="#5784b7"/> <rect x="13" y="26" width="1" height="1" fill="#5181b6"/> <rect x="14" y="26" width="1" height="1" fill="#497eb4"/> <rect x="15" y="26" width="1" height="1" fill="#447bb4" fill-opacity="0.9961"/> <rect x="16" y="26" width="1" height="1" fill="#467cb4" fill-opacity="0.9961"/> <rect x="17" y="26" width="1" height="1" fill="#4e80b5"/> <rect x="18" y="26" width="1" height="1" fill="#5583b7"/> <rect x="19" y="26" width="1" height="1" fill="#5483b7"/> <rect x="20" y="26" width="1" height="1" fill="#467cb4" fill-opacity="0.9176"/> <rect x="21" y="26" width="1" height="1" fill="#3976b2" fill-opacity="0.4392"/> <rect x="22" y="26" width="1" height="1" fill="#3971aa" fill-opacity="0.0353"/> <rect x="11" y="27" width="1" height="1" fill="#4674b9" fill-opacity="0.0431"/> <rect x="12" y="27" width="1" height="1" fill="#5584b7" fill-opacity="0.4706"/> <rect x="13" y="27" width="1" height="1" fill="#5181b6" fill-opacity="0.9294"/> <rect x="14" y="27" width="1" height="1" fill="#4a7fb4"/> <rect x="15" y="27" width="1" height="1" fill="#447cb3"/> <rect x="16" y="27" width="1" height="1" fill="#437bb3"/> <rect x="17" y="27" width="1" height="1" fill="#477db4"/> <rect x="18" y="27" width="1" height="1" fill="#437cb3" fill-opacity="0.9529"/> <rect x="19" y="27" width="1" height="1" fill="#3a77b0" fill-opacity="0.5216"/> <rect x="20" y="27" width="1" height="1" fill="#3070af" fill-opacity="0.0627"/> <rect x="13" y="28" width="1" height="1" fill="#4379ae" fill-opacity="0.0745"/> <rect x="14" y="28" width="1" height="1" fill="#457db3" fill-opacity="0.5373"/> <rect x="15" y="28" width="1" height="1" fill="#427bb3" fill-opacity="0.9608"/> <rect x="16" y="28" width="1" height="1" fill="#3e79b1" fill-opacity="0.9804"/> <rect x="17" y="28" width="1" height="1" fill="#3c77b1" fill-opacity="0.6039"/> <rect x="18" y="28" width="1" height="1" fill="#2f71aa" fill-opacity="0.1059"/> <rect x="15" y="29" width="1" height="1" fill="#3a73ad" fill-opacity="0.1216"/> <rect x="16" y="29" width="1" height="1" fill="#3577b2" fill-opacity="0.1686"/>
  </g>
</svg>
